# xmcd
# 
# Track frame offsets:
#     150
#     36437
#     58722
#     91115
#     128112
#     151922
#     177155
#     203247
#     229567
# 
# Disc length: 3653
# 
# Revision: 2
# Processed by: cddbd v1.5.2PL0 Copyright (c) Steve Scherf et al.
# Submitted via: BonkEnc v1.0.6
# 
DISCID=6d0e4309
DTITLE=Harvie Swartz - New Beginning
DYEAR=2001
DGENRE=Jazz
TTITLE0=New Beginning
TTITLE1=En La Batagllia
TTITLE2=Chump Change
TTITLE3=Luna Romantica
TTITLE4=African Heartbeat
TTITLE5=A Bright Moment
TTITLE6=From The Ashes
TTITLE7=Tres Mundos
TTITLE8=Mothership
EXTD=
EXTT0=
EXTT1=
EXTT2=
EXTT3=
EXTT4=
EXTT5=
EXTT6=
EXTT7=
EXTT8=
PLAYORDER=
